<svg xmlns="http://www.w3.org/2000/svg" style="display: none;">
    <symbol version="1.1" id="home" xml:space="preserve" viewBox="0 0 50 50">
      <g>
        <path d="M 24.962891 1.0546875 A 1.0001 1.0001 0 0 0 24.384766 1.2636719 L 1.3847656 19.210938 A 1.0005659 1.0005659 0 0 0 2.6152344 20.789062 L 4 19.708984 L 4 46 A 1.0001 1.0001 0 0 0 5 47 L 18.832031 47 A 1.0001 1.0001 0 0 0 19.158203 47 L 30.832031 47 A 1.0001 1.0001 0 0 0 31.158203 47 L 45 47 A 1.0001 1.0001 0 0 0 46 46 L 46 19.708984 L 47.384766 20.789062 A 1.0005657 1.0005657 0 1 0 48.615234 19.210938 L 41 13.269531 L 41 6 L 35 6 L 35 8.5859375 L 25.615234 1.2636719 A 1.0001 1.0001 0 0 0 24.962891 1.0546875 z M 25 3.3222656 L 44 18.148438 L 44 45 L 32 45 L 32 26 L 18 26 L 18 45 L 6 45 L 6 18.148438 L 25 3.3222656 z M 37 8 L 39 8 L 39 11.708984 L 37 10.146484 L 37 8 z M 20 28 L 30 28 L 30 45 L 20 45 L 20 28 z"></path>
      </g>
    </symbol>
    <symbol version="1.1" id="user" xml:space="preserve" viewBox="0 0 100 100">
      <g>
        <path d="M51.775,54.264C31.718,54.264,15.4,71.193,15.4,92c0,0.828,0.671,1.5,1.5,1.5h69.75c0.828,0,1.5-0.672,1.5-1.5C88.15,71.193,71.833,54.264,51.775,54.264z M18.431,90.5c0.757-18.46,15.424-33.236,33.345-33.236c17.92,0,32.587,14.776,33.345,33.236H18.431z"></path>
        <path d="M51.146,50.142c11.568,0,20.98-9.74,20.98-21.713S62.715,6.716,51.146,6.716s-20.979,9.74-20.979,21.713S39.578,50.142,51.146,50.142z M51.146,9.716c9.914,0,17.98,8.395,17.98,18.713s-8.066,18.713-17.98,18.713s-17.979-8.395-17.979-18.713S41.232,9.716,51.146,9.716z"></path>
      </g>
    </symbol>
  </svg>